HIERARCHY
ROOT hip
{
  OFFSET 0 0 0
  CHANNELS 6 Xposition Yposition Zposition Zrotation Yrotation Xrotation
  JOINT abdomen
  {
    OFFSET 0 20.6881 -0.73152
    CHANNELS 3 Zrotation Xrotation Yrotation
    JOINT chest
    {
      OFFSET 0 11.7043 -0.48768
      CHANNELS 3 Zrotation Xrotation Yrotation
      JOINT neck
      {
        OFFSET 0 22.1894 -2.19456
        CHANNELS 3 Zrotation Xrotation Yrotation
        JOINT head
        {
          OFFSET -0.24384 7.07133 1.2192
          CHANNELS 3 Zrotation Xrotation Yrotation
          JOINT leftEye
          {
            OFFSET 4.14528 8.04674 8.04672
            CHANNELS 3 Zrotation Xrotation Yrotation
            End Site
            {
              OFFSET 1 0 0
            }
          }
          JOINT rightEye
          {
            OFFSET -3.6576 8.04674 8.04672
            CHANNELS 3 Zrotation Xrotation Yrotation
            End Site
            {
              OFFSET 1 0 0
            }
          }
        }
      }
      JOINT rCollar
      {
        OFFSET -2.68224 19.2634 -4.8768
        CHANNELS 3 Zrotation Xrotation Yrotation
        JOINT rShldr
        {
          OFFSET -8.77824 -1.95073 1.46304
          CHANNELS 3 Zrotation Xrotation Yrotation
          JOINT rForeArm
          {
            OFFSET -28.1742 -1.7115 0.48768
            CHANNELS 3 Zrotation Xrotation Yrotation
            JOINT rHand
            {
              OFFSET -22.5879 0.773209 7.07136
              CHANNELS 3 Zrotation Xrotation Yrotation
              JOINT rThumb1
              {
                OFFSET -1.2192 -0.487915 3.41376
                CHANNELS 3 Zrotation Xrotation Yrotation
                JOINT rThumb2
                {
                  OFFSET -3.37035 -0.52449 3.41376
                  CHANNELS 3 Zrotation Xrotation Yrotation
                  End Site
                  {
                    OFFSET -1.78271 -1.18214 1.43049
                  }
                }
              }
              JOINT rIndex1
              {
                OFFSET -7.75947 0.938293 5.60832
                CHANNELS 3 Zrotation Xrotation Yrotation
                JOINT rIndex2
                {
                  OFFSET -2.54057 -0.884171 1.56538
                  CHANNELS 3 Zrotation Xrotation Yrotation
                  End Site
                  {
                    OFFSET -1.62519 -0.234802 1.16502
                  }
                }
              }
              JOINT rMid1
              {
                OFFSET -8.24714 1.18213 3.41376
                CHANNELS 3 Zrotation Xrotation Yrotation
                JOINT rMid2
                {
                  OFFSET -3.10165 -0.590103 1.0647
                  CHANNELS 3 Zrotation Xrotation Yrotation
                  End Site
                  {
                    OFFSET -2.48547 -0.328903 0.83742
                  }
                }
              }
              JOINT rRing1
              {
                OFFSET -8.82822 0.546677 1.51678
                CHANNELS 3 Zrotation Xrotation Yrotation
                JOINT rRing2
                {
                  OFFSET -2.60934 -0.819778 -0.0198488
                  CHANNELS 3 Zrotation Xrotation Yrotation
                  End Site
                  {
                    OFFSET -2.33842 -0.294052 0.168128
                  }
                }
              }
              JOINT rPinky1
              {
                OFFSET -8.27202 -0.0477905 -0.4584
                CHANNELS 3 Zrotation Xrotation Yrotation
                JOINT rPinky2
                {
                  OFFSET -1.82734 -0.647385 -0.700984
                  CHANNELS 3 Zrotation Xrotation Yrotation
                  End Site
                  {
                    OFFSET -1.69225 -0.51767 -0.607171
                  }
                }
              }
            }
          }
        }
      }
      JOINT lCollar
      {
        OFFSET 2.68224 19.2634 -4.8768
        CHANNELS 3 Zrotation Xrotation Yrotation
        JOINT lShldr
        {
          OFFSET 8.77824 -1.95073 1.46304
          CHANNELS 3 Zrotation Xrotation Yrotation
          JOINT lForeArm
          {
            OFFSET 28.1742 -1.7115 0.48768
            CHANNELS 3 Zrotation Xrotation Yrotation
            JOINT lHand
            {
              OFFSET 22.5879 0.773209 7.07136
              CHANNELS 3 Zrotation Xrotation Yrotation
              JOINT lThumb1
              {
                OFFSET 1.2192 -0.487915 3.41376
                CHANNELS 3 Zrotation Xrotation Yrotation
                JOINT lThumb2
                {
                  OFFSET 3.37035 -0.52449 3.41376
                  CHANNELS 3 Zrotation Xrotation Yrotation
                  End Site
                  {
                    OFFSET 1.78271 -1.18214 1.43049
                  }
                }
              }
              JOINT lIndex1
              {
                OFFSET 7.75947 0.938293 5.60832
                CHANNELS 3 Zrotation Xrotation Yrotation
                JOINT lIndex2
                {
                  OFFSET 2.54057 -0.884171 1.56538
                  CHANNELS 3 Zrotation Xrotation Yrotation
                  End Site
                  {
                    OFFSET 1.62519 -0.234802 1.16502
                  }
                }
              }
              JOINT lMid1
              {
                OFFSET 8.24714 1.18213 3.41376
                CHANNELS 3 Zrotation Xrotation Yrotation
                JOINT lMid2
                {
                  OFFSET 3.10165 -0.590103 1.0647
                  CHANNELS 3 Zrotation Xrotation Yrotation
                  End Site
                  {
                    OFFSET 2.48547 -0.328903 0.83742
                  }
                }
              }
              JOINT lRing1
              {
                OFFSET 8.82822 0.546677 1.51678
                CHANNELS 3 Zrotation Xrotation Yrotation
                JOINT lRing2
                {
                  OFFSET 2.60934 -0.819778 -0.0198488
                  CHANNELS 3 Zrotation Xrotation Yrotation
                  End Site
                  {
                    OFFSET 2.33842 -0.294052 0.168128
                  }
                }
              }
              JOINT lPinky1
              {
                OFFSET 8.27202 -0.0477905 -0.4584
                CHANNELS 3 Zrotation Xrotation Yrotation
                JOINT lPinky2
                {
                  OFFSET 1.82734 -0.647385 -0.700984
                  CHANNELS 3 Zrotation Xrotation Yrotation
                  End Site
                  {
                    OFFSET 1.69225 -0.51767 -0.607171
                  }
                }
              }
            }
          }
        }
      }
    }
  }
  JOINT rButtock
  {
    OFFSET -8.77824 4.35084 1.2192
    CHANNELS 3 Zrotation Xrotation Yrotation
    JOINT rThigh
    {
      OFFSET 0 -1.70687 -2.19456
      CHANNELS 3 Zrotation Xrotation Yrotation
      JOINT rShin
      {
        OFFSET 0 -36.8199 0.73152
        CHANNELS 3 Zrotation Xrotation Yrotation
        JOINT rFoot
        {
          OFFSET 0.73152 -45.1104 -5.12064
          CHANNELS 3 Zrotation Xrotation Yrotation
          End Site
          {
            OFFSET -1.1221 -3.69964 12.103
          }
        }
      }
    }
  }
  JOINT lButtock
  {
    OFFSET 8.77824 4.35084 1.2192
    CHANNELS 3 Zrotation Xrotation Yrotation
    JOINT lThigh
    {
      OFFSET 0 -1.70687 -2.19456
      CHANNELS 3 Zrotation Xrotation Yrotation
      JOINT lShin
      {
        OFFSET 0 -36.8199 0.73152
        CHANNELS 3 Zrotation Xrotation Yrotation
        JOINT lFoot
        {
          OFFSET -0.73152 -45.1104 -5.12064
          CHANNELS 3 Zrotation Xrotation Yrotation
          End Site
          {
            OFFSET 1.1221 -3.69964 12.103
          }
        }
      }
    }
  }
}
MOTION
Frames:	4
Frame Time:	0.00833333
18.5284 83.6688 -83.2079 0.0 0.0 0.0 2.23597 -0.000457742 0.0604473 0.615857 0.00897829 0.106601 2.15641e-14 0.0 -3.23025e-16 6.60773e-14 3.18055e-15 -9.47333e-16 -0.0 0.0 0.0 -0.0 0.0 0.0 1.08322e-14 -1.09875e-16 0.0 2.33056e-13 -2.2736e-15 -2.18663e-15 3.98146e-12 -1.26745e-12 -1.04958e-13 4.55749e-11 7.77174e-13 -6.13847e-13 1.07498e-10 -1.06456e-12 -1.54575e-12 1.8564e-10 -1.84472e-12 -2.67644e-12 1.07503e-10 -1.0631e-12 -1.55211e-12 7.73091 5.47488 0.417314 1.07498e-10 -1.06449e-12 -1.54257e-12 2.90554 0.965183 0.102902 1.0751e-10 -1.0638e-12 -1.54973e-12 10.2786 0.731801 0.0259123 1.07493e-10 -1.0631e-12 -1.54257e-12 2.22167 -0.733487 -0.20892 1.08361e-14 -1.07157e-16 -1.98785e-16 2.29457e-13 -2.19284e-15 -3.57812e-15 3.98608e-12 1.11478e-12 -1.04958e-13 4.55773e-11 -1.59105e-12 -5.91583e-13 1.07518e-10 -1.0365e-12 -1.54893e-12 1.8568e-10 -1.79065e-12 -2.66849e-12 1.07511e-10 -1.03408e-12 -1.53621e-12 -7.73091 5.47488 -0.417314 1.07516e-10 -1.03607e-12 -1.55211e-12 -2.90554 0.965183 -0.102902 1.07507e-10 -1.03587e-12 -1.54416e-12 -10.2786 0.731801 -0.0259123 1.07528e-10 -1.03408e-12 -1.55211e-12 -2.22167 -0.733487 0.20892 -2.03217e-16 0.0 -3.88251e-19 2.2115 -7.80172 -0.224237 0.00522228 8.55973 0.135888 -0.548567 -0.766608 0.0462073 2.03217e-16 0.0 3.88251e-19 1.1839 -1.92859 -0.00254067 0.00909136 -2.07858 0.0749841 0.51379 3.99846 -0.140577
18.2047 81.7803 -83.769 1.5566 -7.2359 3.0061 2.27297 -1.61452 0.930466 -0.350923 1.2484 0.376353 0.00434288 4.82703 -0.526326 1.0185 -7.65819 -0.809281 -0.0 0.0 0.0 -0.0 0.0 0.0 2.46573e-14 -3.64328e-14 1.2184e-13 21.5008 3.63245 -1.67766 -3.65719 -1.56365 5.81421 0.011296 2.37205 0.332361 -4.99338e-10 8.26194e-10 3.46286e-10 -8.60119e-10 1.42807e-09 6.03771e-10 -4.99333e-10 8.26195e-10 3.4628e-10 7.73091 5.47488 0.417314 -4.99338e-10 8.26194e-10 3.4629e-10 2.90554 0.965183 0.102902 -4.99328e-10 8.26194e-10 3.46283e-10 10.2786 0.731801 0.0259123 -4.99342e-10 8.26195e-10 3.46291e-10 2.22167 -0.733487 -0.20892 2.46127e-14 -3.64308e-14 1.21623e-13 -19.8699 8.63908 -0.957628 3.43168 -1.4299 -5.49229 -0.0104587 -2.26905 0.317991 -1.77035e-10 -4.60212e-10 7.25022e-12 -3.05974e-10 -7.96279e-10 1.13678e-11 -1.77045e-10 -4.60212e-10 7.25845e-12 -7.73091 5.47488 -0.417314 -1.7704e-10 -4.60214e-10 7.24704e-12 -2.90554 0.965183 -0.102902 -1.77049e-10 -4.60214e-10 7.25253e-12 -10.2786 0.731801 -0.0259123 -1.77027e-10 -4.60211e-10 7.24617e-12 -2.22167 -0.733487 0.20892 -2.03217e-16 0.0 -3.88251e-19 2.91462 -9.5551 1.16892 0.0652875 17.3038 0.368829 -2.13072 -10.9364 -6.06641 2.03217e-16 0.0 3.88251e-19 2.5118 -9.73686 0.260045 -0.0134325 9.70424 -0.102292 0.208565 -0.76837 -2.67734
18.3152 81.7746 -83.7423 2.0487 -7.2399 2.8609 2.36449 -3.32219 1.85769 -1.38674 2.55546 0.663603 0.108202 9.94115 -1.09984 1.85447 -15.7559 -1.72237 -0.0 0.0 0.0 -0.0 0.0 0.0 4.03883e-14 -8.05562e-14 2.60218e-13 44.4646 7.44229 -3.47952 -7.18472 -3.16586 11.9817 -0.00679667 4.84946 0.681428 -1.20231e-09 1.76445e-09 7.63647e-10 -2.0714e-09 3.04973e-09 1.33127e-09 -1.20231e-09 1.76445e-09 7.6364e-10 7.73091 5.47488 0.417314 -1.20232e-09 1.76445e-09 7.6365e-10 2.90554 0.965183 0.102902 -1.20231e-09 1.76445e-09 7.63645e-10 10.2786 0.731801 0.0259123 -1.20232e-09 1.76445e-09 7.63654e-10 2.22167 -0.733487 -0.20892 4.02899e-14 -8.0555e-14 2.59979e-13 -40.5463 17.7641 -2.03466 6.76221 -2.89736 -11.3083 0.00594558 -4.66373 0.655283 -5.02678e-10 -1.00974e-09 9.21447e-12 -8.68683e-10 -1.74717e-09 1.34703e-11 -5.02691e-10 -1.00975e-09 9.21784e-12 -7.73091 5.47488 -0.417314 -5.02686e-10 -1.00975e-09 9.21129e-12 -2.90554 0.965183 -0.102902 -5.02695e-10 -1.00975e-09 9.21412e-12 -10.2786 0.731801 -0.0259123 -5.02672e-10 -1.00974e-09 9.20949e-12 -2.22167 -0.733487 0.20892 -2.03217e-16 0.0 -3.88251e-19 3.74973 -11.4051 2.65554 0.0418681 26.5518 0.65045 -6.2918 -21.2171 -13.2299 2.03217e-16 0.0 3.88251e-19 3.99531 -17.9861 0.556263 0.0468002 22.157 -0.309626 -0.574044 -5.78436 -5.38552
18.2118 81.7412 -83.8043 1.6333 -7.4046 3.0795 2.4944 -4.838 2.67895 -2.31956 3.72685 0.917529 0.286466 14.4761 -1.62498 2.35926 -22.9554 -2.61326 -0.0 0.0 0.0 -0.0 0.0 0.0 5.23075e-14 -1.09079e-13 3.6552e-13 65.1497 10.8596 -5.1147 -10.0334 -4.49807 17.4917 -0.0492116 7.11517 1.00396 -1.71301e-09 2.48071e-09 1.04195e-09 -2.95164e-09 4.2879e-09 1.81666e-09 -1.71301e-09 2.48071e-09 1.04194e-09 7.73091 5.47488 0.417314 -1.71301e-09 2.48071e-09 1.04195e-09 2.90554 0.965183 0.102902 -1.713e-09 2.48071e-09 1.04195e-09 10.2786 0.731801 0.0259123 -1.71301e-09 2.48071e-09 1.04196e-09 2.22167 -0.733487 -0.20892 5.21659e-14 -1.09078e-13 3.65266e-13 -58.6617 25.8866 -3.15737 9.48344 -4.13229 -16.5159 0.0446358 -6.80629 0.95999 -7.46141e-10 -1.37856e-09 2.48485e-11 -1.28928e-09 -2.38526e-09 3.94404e-11 -7.46157e-10 -1.37857e-09 2.48478e-11 -7.73091 5.47488 -0.417314 -7.46152e-10 -1.37857e-09 2.48454e-11 -2.90554 0.965183 -0.102902 -7.46161e-10 -1.37857e-09 2.48459e-11 -10.2786 0.731801 -0.0259123 -7.46137e-10 -1.37856e-09 2.48427e-11 -2.22167 -0.733487 0.20892 -2.03217e-16 0.0 -3.88251e-19 4.58281 -13.0367 4.00584 -0.0731762 34.7891 0.959104 -12.511 -29.7635 -20.8063 2.03217e-16 0.0 3.88251e-19 5.40222 -25.3512 0.856456 0.192027 33.2688 -0.541026 -1.67912 -10.2094 -7.87632
